<svg id="visual" viewBox="0 0 900 600" width="900" height="600" xmlns="http://www.w3.org/2000/svg" xmlns:xlink="http://www.w3.org/1999/xlink" version="1.1"><rect x="0" y="0" width="900" height="600" fill="#02223a"></rect><defs><linearGradient id="grad1_0" x1="33.3%" y1="0%" x2="100%" y2="100%"><stop offset="20%" stop-color="#02223a" stop-opacity="1"></stop><stop offset="80%" stop-color="#02223a" stop-opacity="1"></stop></linearGradient></defs><defs><linearGradient id="grad2_0" x1="0%" y1="0%" x2="66.7%" y2="100%"><stop offset="20%" stop-color="#02223a" stop-opacity="1"></stop><stop offset="80%" stop-color="#02223a" stop-opacity="1"></stop></linearGradient></defs><g transform="translate(900, 0)"><path d="M0 486.7C-59.1 472.3 -118.3 457.8 -181.4 437.9C-244.5 418 -311.7 392.7 -344.2 344.2C-376.7 295.6 -374.7 223.9 -392.6 162.6C-410.6 101.4 -448.7 50.7 -486.7 0L0 0Z" fill="#6400f9"></path></g><g transform="translate(0, 600)"><path d="M0 -486.7C49 -448.8 97.9 -410.8 163.4 -394.5C228.9 -378.1 310.8 -383.4 344.2 -344.2C377.5 -305 362.2 -221.3 377.9 -156.5C393.5 -91.7 440.1 -45.9 486.7 0L0 0Z" fill="#6400f9"></path></g></svg>