<svg id="visual" viewBox="0 0 300 450" width="300" height="450" xmlns="http://www.w3.org/2000/svg" xmlns:xlink="http://www.w3.org/1999/xlink" version="1.1"><rect x="0" y="0" width="300" height="450" fill="#002233"></rect><path d="M0 376L5.5 377.5C11 379 22 382 33.2 381.8C44.3 381.7 55.7 378.3 66.8 369.7C78 361 89 347 100 349.5C111 352 122 371 133.2 371.3C144.3 371.7 155.7 353.3 166.8 355.5C178 357.7 189 380.3 200 387.7C211 395 222 387 233.2 378C244.3 369 255.7 359 266.8 356.2C278 353.3 289 357.7 294.5 359.8L300 362L300 451L294.5 451C289 451 278 451 266.8 451C255.7 451 244.3 451 233.2 451C222 451 211 451 200 451C189 451 178 451 166.8 451C155.7 451 144.3 451 133.2 451C122 451 111 451 100 451C89 451 78 451 66.8 451C55.7 451 44.3 451 33.2 451C22 451 11 451 5.5 451L0 451Z" fill="#0066FF" stroke-linecap="round" stroke-linejoin="miter"></path></svg>